<svg width="440" height="105" viewBox="0 0 440 105" fill="none" xmlns="http://www.w3.org/2000/svg">
<mask id="path-1-inside-1_2329_26" fill="white">
<path d="M57.1 46.7C56.6 49.6 54.5 51.2 51.3 51.2H44.1L45.7 42.2H52.7C56 42.2 57.7 43.9 57.1 46.7ZM59 31C58.5 33.7 56.5 35.2 53.2 35.2H46.9L48.4 26.7H54.8C58 26.7 59.4 28.2 59 31ZM66.8 48.1C67.5 43.5 65.2 39.4 60.8 38.5C64.9 37.3 68.3 34.2 69.1 29.4C70.3 23.1 66.1 19 58 19H40.1L33 58.9H51.6C60 58.9 65.6 54.6 66.8 48.1ZM96.3 32C95.7 35.1 93.7 37 90 37H84L85.8 27H91.8C95.4 27 96.8 29 96.3 32ZM77.5 19L70.4 58.9H80.2L82.8 43.9H85.2L90.8 58.9H101.7L95.3 43.1C101.8 41.3 105.4 36.6 106.2 31.6C107.5 24.7 103.5 19 93.8 19H77.5ZM138.9 19H114.5L107.5 58.9H131.9L133.2 51.2H118.5L120.1 42.3H133.1L134.4 35H121.4L122.8 26.7H137.6L138.9 19ZM165.3 58.9H175.6L168.2 19H157L135.5 58.9H145.7L149.3 51.8H164.2L165.3 58.9ZM163 44.5H153.1L160.7 29.7L163 44.5ZM183.4 26.8H194L188.3 59H198L203.7 26.8H214.3L215.6 19.1H184.8L183.4 26.8ZM238.2 59H247.9L255 19.1H245.3L242.5 34.8H227.4L230.2 19.1H220.5L213.4 59H223.1L226 42.5H241.1L238.2 59ZM290 19.1H275.1L268 59H283C295.7 59 305.3 50.9 307.4 39C309.5 27.2 302.7 19.1 290 19.1ZM279.2 50.7L283.3 27.4H288C295.3 27.4 298.8 31.7 297.5 39C296.3 46.4 291.2 50.7 283.8 50.7H279.2ZM340.8 19.1H316.4L309.3 59H333.7L335.1 51.3H320.4L322 42.4H335L336.3 35.1H323.3L324.7 26.8H339.4L340.8 19.1ZM371.5 19.1H347.1L340.1 58.9H364.5L365.9 51.3H351.2L352.7 42.4H365.7L367 35H354L355.5 26.7H370.2L371.5 19.1ZM384.4 37.1L386.1 26.9H391.4C395.3 26.9 396.6 28.9 396 32C395.4 35 393.5 37.1 389.6 37.1H384.4ZM405.9 32C407.2 24.7 403.3 19.1 393.5 19.1H377.8L370.8 59H380.5L383 44.7H389C399.2 44.7 404.8 38.6 405.9 32Z"/>
</mask>
<path d="M57.1 46.7C56.6 49.6 54.5 51.2 51.3 51.2H44.1L45.7 42.2H52.7C56 42.2 57.7 43.9 57.1 46.7ZM59 31C58.5 33.7 56.5 35.2 53.2 35.2H46.9L48.4 26.7H54.8C58 26.7 59.4 28.2 59 31ZM66.8 48.1C67.5 43.5 65.2 39.4 60.8 38.5C64.9 37.3 68.3 34.2 69.1 29.4C70.3 23.1 66.1 19 58 19H40.1L33 58.9H51.6C60 58.9 65.6 54.6 66.8 48.1ZM96.3 32C95.7 35.1 93.7 37 90 37H84L85.8 27H91.8C95.4 27 96.8 29 96.3 32ZM77.5 19L70.4 58.9H80.2L82.8 43.9H85.2L90.8 58.9H101.7L95.3 43.1C101.8 41.3 105.4 36.6 106.2 31.6C107.5 24.7 103.5 19 93.8 19H77.5ZM138.9 19H114.5L107.5 58.9H131.9L133.2 51.2H118.5L120.1 42.3H133.1L134.4 35H121.4L122.8 26.7H137.6L138.9 19ZM165.3 58.9H175.6L168.2 19H157L135.5 58.9H145.7L149.3 51.8H164.2L165.3 58.9ZM163 44.5H153.1L160.7 29.7L163 44.5ZM183.4 26.8H194L188.3 59H198L203.7 26.8H214.3L215.6 19.1H184.8L183.4 26.8ZM238.2 59H247.9L255 19.1H245.3L242.5 34.8H227.4L230.2 19.1H220.5L213.4 59H223.1L226 42.5H241.1L238.2 59ZM290 19.1H275.1L268 59H283C295.7 59 305.3 50.9 307.4 39C309.5 27.2 302.7 19.1 290 19.1ZM279.2 50.7L283.3 27.4H288C295.3 27.4 298.8 31.7 297.5 39C296.3 46.4 291.2 50.7 283.8 50.7H279.2ZM340.8 19.1H316.4L309.3 59H333.7L335.1 51.3H320.4L322 42.4H335L336.3 35.1H323.3L324.7 26.8H339.4L340.8 19.1ZM371.5 19.1H347.1L340.1 58.9H364.5L365.9 51.3H351.2L352.7 42.4H365.7L367 35H354L355.5 26.7H370.2L371.5 19.1ZM384.4 37.1L386.1 26.9H391.4C395.3 26.9 396.6 28.9 396 32C395.4 35 393.5 37.1 389.6 37.1H384.4ZM405.9 32C407.2 24.7 403.3 19.1 393.5 19.1H377.8L370.8 59H380.5L383 44.7H389C399.2 44.7 404.8 38.6 405.9 32Z" fill="white" stroke="white" stroke-width="2" mask="url(#path-1-inside-1_2329_26)"/>
<mask id="path-2-inside-2_2329_26" fill="white">
<path d="M43 81.9H44.8V68.7H43V74.5H36.3V68.7H34.6V81.9H36.3V75.9H43V81.9ZM60.3 75.3C60.3 71.3 57.4 68.5 53.7 68.5C50 68.5 47 71.3 47 75.3C47 79.2 50 82 53.7 82C57.4 82 60.3 79.2 60.3 75.3ZM48.8 75.3C48.8 72 50.9 70 53.7 70C56.5 70 58.6 72 58.6 75.3C58.6 78.5 56.5 80.5 53.7 80.5C50.9 80.5 48.8 78.5 48.8 75.3ZM62.6 68.7V81.9H69V80.5H64.4V68.7H62.6ZM74.9 68.7H70.8V81.9H74.9C79.2 81.9 81.9 79.4 81.9 75.3C81.9 71.2 79.2 68.7 74.9 68.7ZM72.5 80.5V70.1H74.9C78.3 70.1 80.2 72.1 80.2 75.3C80.2 78.5 78.3 80.5 74.9 80.5H72.5ZM92.5 76.9V81.9H94.2V76.9L98.5 68.7H96.6L93.3 75.4L90.1 68.7H88.2L92.5 76.9ZM113 75.2C113 71.2 110.1 68.5 106.3 68.5C102.6 68.5 99.7 71.2 99.7 75.2C99.7 79.2 102.6 82 106.3 82C110.1 82 113 79.2 113 75.2ZM101.4 75.2C101.4 72 103.5 70 106.3 70C109.1 70 111.2 72 111.2 75.2C111.2 78.4 109.1 80.5 106.3 80.5C103.5 80.5 101.4 78.4 101.4 75.2ZM115.2 77C115.2 80.4 117.5 82 120.2 82C122.9 82 125.2 80.4 125.2 77V68.6H123.5V77C123.5 79.4 122.2 80.5 120.2 80.5C118.3 80.5 117 79.4 117 77V68.6H115.2V77ZM135.2 72.5C135.2 74 134.3 75.1 132.4 75.1H129.8V70.1H132.4C134.3 70.1 135.2 71 135.2 72.5ZM128.1 68.6V81.9H129.8V76.5H131.9L135.1 81.9H137.1L133.8 76.3C136 75.8 137 74.2 137 72.5C137 70.4 135.5 68.6 132.4 68.6H128.1ZM152.2 78.2C152.2 79.6 151.2 80.5 149.5 80.5H146.4V75.8H149.4C151.1 75.8 152.2 76.7 152.2 78.2ZM151.9 72.2C151.9 73.6 150.9 74.4 149.3 74.4H146.4V70.1H149.3C151 70.1 151.9 70.9 151.9 72.2ZM153.9 78.3C153.9 76.7 152.8 75.3 151.3 75.1C152.6 74.7 153.6 73.7 153.6 72C153.6 70.2 152.2 68.6 149.4 68.6H144.7V81.9H149.6C152.4 81.9 153.9 80.3 153.9 78.3ZM163.4 72.5C163.4 74 162.6 75.1 160.6 75.1H158.1V70.1H160.6C162.6 70.1 163.4 71 163.4 72.5ZM156.3 68.6V81.9H158.1V76.5H160.2L163.3 81.9H165.4L162.1 76.3C164.3 75.8 165.2 74.2 165.2 72.5C165.2 70.4 163.7 68.6 160.6 68.6H156.3ZM175 68.6H167.9V81.9H175V80.5H169.6V75.9H174.4V74.5H169.6V70.1H175V68.6ZM186.5 81.8H188.3L183.6 68.6H181.6L176.8 81.8H178.6L179.7 78.9H185.4L186.5 81.8ZM185 77.4H180.2L182.6 70.7L185 77.4ZM189.6 69.9H193.3V81.8H195V69.9H198.6V68.5H189.6V69.9ZM209.2 81.8H210.9V68.5H209.2V74.3H202.5V68.5H200.7V81.8H202.5V75.8H209.2V81.8ZM227.8 81.8H229.7L224.9 68.6H222.9L218.1 81.8H219.9L221 78.8H226.8L227.8 81.8ZM226.2 77.5H221.4L223.8 70.8L226.2 77.5ZM240.4 68.6V79.1L233.4 68.6H231.7V81.8H233.4V71.3L240.4 81.8H242.1V68.6H240.4ZM249.2 68.6H245.1V81.8H249.2C253.5 81.8 256.2 79.3 256.2 75.2C256.2 71.1 253.5 68.6 249.2 68.6ZM246.8 80.4V70H249.2C252.7 70 254.5 72 254.5 75.2C254.5 78.5 252.7 80.4 249.2 80.4H246.8ZM267.7 68.6H263.6V81.8H267.7C272 81.8 274.7 79.3 274.7 75.2C274.7 71.1 272 68.6 267.7 68.6ZM265.3 80.4V70H267.7C271.2 70 273 72 273 75.2C273 78.5 271.2 80.4 267.7 80.4H265.3ZM281.4 72.7C283.2 72.7 284.7 73.8 284.7 75.9H278.1C278.3 73.8 279.7 72.7 281.4 72.7ZM286.3 78.6H284.4C284 79.7 283.1 80.5 281.5 80.5C279.7 80.5 278.3 79.4 278.1 77.3H286.4C286.5 76.9 286.5 76.6 286.5 76.2C286.5 73.4 284.5 71.3 281.5 71.3C278.5 71.3 276.4 73.3 276.4 76.6C276.4 79.9 278.5 82 281.5 82C284.1 82 285.8 80.5 286.3 78.6ZM293.2 72.7C295 72.7 296.5 73.8 296.5 75.9H289.9C290.1 73.8 291.5 72.7 293.2 72.7ZM298.1 78.6H296.2C295.8 79.7 294.8 80.5 293.3 80.5C291.5 80.5 290 79.4 289.9 77.3H298.2C298.3 76.9 298.3 76.6 298.3 76.2C298.3 73.4 296.3 71.3 293.3 71.3C290.2 71.3 288.1 73.3 288.1 76.6C288.1 79.9 290.3 82 293.3 82C295.9 82 297.5 80.5 298.1 78.6ZM302.3 73.3V71.4H300.6V86.8H302.3V79.9C302.9 81 304.3 82 306.2 82C309 82 311.1 79.8 311.1 76.6C311.1 73.3 309 71.3 306.2 71.3C304.3 71.3 302.9 72.2 302.3 73.3ZM309.4 76.6C309.4 79 307.7 80.5 305.8 80.5C303.9 80.5 302.3 79.1 302.3 76.6C302.3 74.2 303.9 72.8 305.8 72.8C307.7 72.8 309.4 74.1 309.4 76.6ZM317.8 76.6C317.8 79.8 320 82 322.8 82C324.7 82 326 81 326.6 79.9V81.8H328.4V67.8H326.6V73.3C325.9 72.1 324.4 71.3 322.8 71.3C320 71.3 317.8 73.3 317.8 76.6ZM326.6 76.6C326.6 79.1 325 80.5 323.1 80.5C321.2 80.5 319.6 79 319.6 76.6C319.6 74.1 321.2 72.8 323.1 72.8C325 72.8 326.6 74.2 326.6 76.6ZM331.3 81.8H333V71.4H331.3V81.8ZM332.2 69.7C332.8 69.7 333.4 69.2 333.4 68.5C333.4 67.9 332.8 67.4 332.2 67.4C331.5 67.4 331 67.9 331 68.5C331 69.2 331.5 69.7 332.2 69.7ZM334.8 71.4L338.8 81.8H340.9L344.9 71.4H343.1L339.9 80.2L336.6 71.4H334.8ZM351.1 72.7C352.9 72.7 354.4 73.8 354.4 75.9H347.9C348 73.8 349.5 72.7 351.1 72.7ZM356 78.6H354.1C353.8 79.7 352.8 80.5 351.2 80.5C349.5 80.5 348 79.4 347.8 77.3H356.2C356.2 76.9 356.2 76.6 356.2 76.2C356.2 73.4 354.2 71.2 351.2 71.2C348.2 71.2 346.1 73.3 346.1 76.6C346.1 79.9 348.3 82 351.2 82C353.8 82 355.5 80.5 356 78.6Z"/>
</mask>
<path d="M43 81.9H44.8V68.7H43V74.5H36.3V68.7H34.6V81.9H36.3V75.9H43V81.9ZM60.3 75.3C60.3 71.3 57.4 68.5 53.7 68.5C50 68.5 47 71.3 47 75.3C47 79.2 50 82 53.7 82C57.4 82 60.3 79.2 60.3 75.3ZM48.8 75.3C48.8 72 50.9 70 53.7 70C56.5 70 58.6 72 58.6 75.3C58.6 78.5 56.5 80.5 53.7 80.5C50.9 80.5 48.8 78.5 48.8 75.3ZM62.6 68.7V81.9H69V80.5H64.4V68.7H62.6ZM74.9 68.7H70.8V81.9H74.9C79.2 81.9 81.9 79.4 81.9 75.3C81.9 71.2 79.2 68.7 74.9 68.7ZM72.5 80.5V70.1H74.9C78.3 70.1 80.2 72.1 80.2 75.3C80.2 78.5 78.3 80.5 74.9 80.5H72.5ZM92.5 76.9V81.9H94.2V76.9L98.5 68.7H96.6L93.3 75.4L90.1 68.7H88.2L92.5 76.9ZM113 75.2C113 71.2 110.1 68.5 106.3 68.5C102.6 68.5 99.7 71.2 99.7 75.2C99.7 79.2 102.6 82 106.3 82C110.1 82 113 79.2 113 75.2ZM101.4 75.2C101.4 72 103.5 70 106.3 70C109.1 70 111.2 72 111.2 75.2C111.2 78.4 109.1 80.5 106.3 80.5C103.5 80.5 101.4 78.4 101.4 75.2ZM115.2 77C115.2 80.4 117.5 82 120.2 82C122.9 82 125.2 80.4 125.2 77V68.6H123.5V77C123.5 79.4 122.2 80.5 120.2 80.5C118.3 80.5 117 79.4 117 77V68.6H115.2V77ZM135.2 72.5C135.2 74 134.3 75.1 132.4 75.1H129.8V70.1H132.4C134.3 70.1 135.2 71 135.2 72.5ZM128.1 68.6V81.9H129.8V76.5H131.9L135.1 81.9H137.1L133.8 76.3C136 75.8 137 74.2 137 72.5C137 70.4 135.5 68.6 132.4 68.6H128.1ZM152.2 78.2C152.2 79.6 151.2 80.5 149.5 80.5H146.4V75.8H149.4C151.1 75.8 152.2 76.7 152.2 78.2ZM151.9 72.2C151.9 73.6 150.9 74.4 149.3 74.4H146.4V70.1H149.3C151 70.1 151.9 70.9 151.9 72.2ZM153.9 78.3C153.9 76.7 152.8 75.3 151.3 75.1C152.6 74.7 153.6 73.7 153.6 72C153.6 70.2 152.2 68.6 149.4 68.6H144.7V81.9H149.6C152.4 81.9 153.9 80.3 153.9 78.3ZM163.4 72.5C163.4 74 162.6 75.1 160.6 75.1H158.1V70.1H160.6C162.6 70.1 163.4 71 163.4 72.5ZM156.3 68.6V81.9H158.1V76.5H160.2L163.3 81.9H165.4L162.1 76.3C164.3 75.8 165.2 74.2 165.2 72.5C165.2 70.4 163.7 68.6 160.6 68.6H156.3ZM175 68.6H167.9V81.9H175V80.5H169.6V75.9H174.4V74.5H169.6V70.1H175V68.6ZM186.5 81.8H188.3L183.6 68.6H181.6L176.8 81.8H178.6L179.7 78.9H185.4L186.5 81.8ZM185 77.4H180.2L182.6 70.7L185 77.4ZM189.6 69.9H193.3V81.8H195V69.9H198.6V68.5H189.6V69.9ZM209.2 81.8H210.9V68.5H209.2V74.3H202.5V68.5H200.7V81.8H202.5V75.8H209.2V81.8ZM227.8 81.8H229.7L224.9 68.6H222.9L218.1 81.8H219.9L221 78.8H226.8L227.8 81.8ZM226.2 77.5H221.4L223.8 70.8L226.2 77.5ZM240.4 68.6V79.1L233.4 68.6H231.7V81.8H233.4V71.3L240.4 81.8H242.1V68.6H240.4ZM249.2 68.6H245.1V81.8H249.2C253.5 81.8 256.2 79.3 256.2 75.2C256.2 71.1 253.5 68.6 249.2 68.6ZM246.8 80.4V70H249.2C252.7 70 254.5 72 254.5 75.2C254.5 78.5 252.7 80.4 249.2 80.4H246.8ZM267.7 68.6H263.6V81.8H267.7C272 81.8 274.7 79.3 274.7 75.2C274.7 71.1 272 68.6 267.7 68.6ZM265.3 80.4V70H267.7C271.2 70 273 72 273 75.2C273 78.5 271.2 80.4 267.7 80.4H265.3ZM281.4 72.7C283.2 72.7 284.7 73.8 284.7 75.9H278.1C278.3 73.8 279.7 72.7 281.4 72.7ZM286.3 78.6H284.4C284 79.7 283.1 80.5 281.5 80.5C279.7 80.5 278.3 79.4 278.1 77.3H286.4C286.5 76.9 286.5 76.6 286.5 76.2C286.5 73.4 284.5 71.3 281.5 71.3C278.5 71.3 276.4 73.3 276.4 76.6C276.4 79.9 278.5 82 281.5 82C284.1 82 285.8 80.5 286.3 78.6ZM293.2 72.7C295 72.7 296.5 73.8 296.5 75.9H289.9C290.1 73.8 291.5 72.7 293.2 72.7ZM298.1 78.6H296.2C295.8 79.7 294.8 80.5 293.3 80.5C291.5 80.5 290 79.4 289.9 77.3H298.2C298.3 76.9 298.3 76.6 298.3 76.2C298.3 73.4 296.3 71.3 293.3 71.3C290.2 71.3 288.1 73.3 288.1 76.6C288.1 79.9 290.3 82 293.3 82C295.9 82 297.5 80.5 298.1 78.6ZM302.3 73.3V71.4H300.6V86.8H302.3V79.9C302.9 81 304.3 82 306.2 82C309 82 311.1 79.8 311.1 76.6C311.1 73.3 309 71.3 306.2 71.3C304.3 71.3 302.9 72.2 302.3 73.3ZM309.4 76.6C309.4 79 307.7 80.5 305.8 80.5C303.9 80.5 302.3 79.1 302.3 76.6C302.3 74.2 303.9 72.8 305.8 72.8C307.7 72.8 309.4 74.1 309.4 76.6ZM317.8 76.6C317.8 79.8 320 82 322.8 82C324.7 82 326 81 326.6 79.9V81.8H328.4V67.8H326.6V73.3C325.9 72.1 324.4 71.3 322.8 71.3C320 71.3 317.8 73.3 317.8 76.6ZM326.6 76.6C326.6 79.1 325 80.5 323.1 80.5C321.2 80.5 319.6 79 319.6 76.6C319.6 74.1 321.2 72.8 323.1 72.8C325 72.8 326.6 74.2 326.6 76.6ZM331.3 81.8H333V71.4H331.3V81.8ZM332.2 69.7C332.8 69.7 333.4 69.2 333.4 68.5C333.4 67.9 332.8 67.4 332.2 67.4C331.5 67.4 331 67.9 331 68.5C331 69.2 331.5 69.7 332.2 69.7ZM334.8 71.4L338.8 81.8H340.9L344.9 71.4H343.1L339.9 80.2L336.6 71.4H334.8ZM351.1 72.7C352.9 72.7 354.4 73.8 354.4 75.9H347.9C348 73.8 349.5 72.7 351.1 72.7ZM356 78.6H354.1C353.8 79.7 352.8 80.5 351.2 80.5C349.5 80.5 348 79.4 347.8 77.3H356.2C356.2 76.9 356.2 76.6 356.2 76.2C356.2 73.4 354.2 71.2 351.2 71.2C348.2 71.2 346.1 73.3 346.1 76.6C346.1 79.9 348.3 82 351.2 82C353.8 82 355.5 80.5 356 78.6Z" fill="#16317F" stroke="#999999" stroke-width="2" mask="url(#path-2-inside-2_2329_26)"/>
</svg>
